<svg id="Comments" xmlns="http://www.w3.org/2000/svg" width="24" height="24" viewBox="0 0 24 24">
  <rect id="Rectangle_505" data-name="Rectangle 505" width="24" height="24" opacity="0"/>
  <path id="Path_239" data-name="Path 239" d="M4.888,11.1l0,.011a5.252,5.252,0,0,0,2.966,3.7L11,16.239V14.556h1.778a4.444,4.444,0,0,0,4.444-4.444V9.222a4.444,4.444,0,0,0-4.444-4.444H9.222A4.444,4.444,0,0,0,4.778,9.222v.889a4.465,4.465,0,0,0,.108.979Zm7.89,7.9L7.121,16.429a7.03,7.03,0,0,1-3.97-4.95A6.244,6.244,0,0,1,3,10.111V9.222A6.222,6.222,0,0,1,9.222,3h3.556A6.222,6.222,0,0,1,19,9.222v.889a6.222,6.222,0,0,1-6.222,6.222Z" transform="translate(1 1)" fill="#808d93"/>
</svg>
