<svg xmlns="http://www.w3.org/2000/svg" width="55.365" height="64.839" viewBox="0 0 55.365 64.839">
  <g id="img-illustration-2" transform="translate(0)">
    <path id="Path_16" data-name="Path 16" d="M2816.05,1071.318h-11.533l.047-2.051s-3.936-2.133-5.964-3.485c-1.5-1-2.515-1.086-2.515-4.439l20.331-5.536Z" transform="translate(-2786.865 -1013.32)" fill="#eef2f6"/>
    <path id="Path_17" data-name="Path 17" d="M2816.05,1071.318h-11.533l.047-2.051s-3.936-2.133-5.964-3.485c-1.5-1-2.515-1.086-2.515-4.439l20.331-5.536Z" transform="translate(-2786.865 -1013.32)" fill="#a9bcd0"/>
    <g id="Group_8" data-name="Group 8" transform="translate(8.815 41.953)">
      <path id="Path_18" data-name="Path 18" d="M2814.773,1069.52h-12.344l.051-2.219c-.857-.469-4.032-2.221-5.778-3.385-.2-.133-.39-.25-.575-.363-1.354-.826-2.12-1.439-2.12-4.414v-.31l21.155-5.76Zm-11.514-.812h10.721l.344-14.571-19.5,5.311c.047,2.387.656,2.759,1.728,3.412.192.117.39.238.6.38,1.99,1.327,5.893,3.445,5.932,3.466l.218.118Z" transform="translate(-2794.006 -1053.068)" fill="#12204d"/>
    </g>
    <path id="Path_19" data-name="Path 19" d="M2764.175,948.126a2.337,2.337,0,0,1-3.034,1.314l-8.747-3.558a2.337,2.337,0,0,1-1.313-3.034h0a2.335,2.335,0,0,1,3.034-1.315l8.744,3.558a2.34,2.34,0,0,1,1.316,3.034Z" transform="translate(-2750.509 -921.211)" fill="#fdfdfd"/>
    <path id="Path_20" data-name="Path 20" d="M2777.875,1041.323a2.027,2.027,0,0,1-2.631,1.14l-2.209-.858a2.027,2.027,0,0,1-1.14-2.63h0a2.024,2.024,0,0,1,2.63-1.14l2.212.859a2.025,2.025,0,0,1,1.138,2.629Z" transform="translate(-2767.28 -998.74)" fill="#fdfdfd"/>
    <path id="Path_21" data-name="Path 21" d="M2779.462,1013.542a2.225,2.225,0,0,1-2.888,1.251l-3.412-1.333a2.228,2.228,0,0,1-1.253-2.889h0a2.227,2.227,0,0,1,2.89-1.25l3.413,1.333a2.226,2.226,0,0,1,1.25,2.889Z" transform="translate(-2767.281 -975.777)" fill="#fdfdfd"/>
    <path id="Path_22" data-name="Path 22" d="M2781.688,984.061a2.335,2.335,0,0,1-3.033,1.314l-5.425-2.144a2.34,2.34,0,0,1-1.314-3.034h0a2.339,2.339,0,0,1,3.035-1.313l5.424,2.144a2.335,2.335,0,0,1,1.313,3.034Z" transform="translate(-2767.28 -951.274)" fill="#fdfdfd"/>
    <g id="Group_9" data-name="Group 9" transform="translate(0 19.751)">
      <path id="Path_23" data-name="Path 23" d="M2760.324,948.334a2.738,2.738,0,0,1-1.011-.194l-8.75-3.559a2.744,2.744,0,0,1,2.023-5.1l8.748,3.559a2.748,2.748,0,0,1,1.541,3.559h0a2.75,2.75,0,0,1-2.551,1.737Zm-8.748-8.238a1.933,1.933,0,0,0-.711,3.731l8.751,3.559a1.931,1.931,0,0,0,2.5-1.087,1.936,1.936,0,0,0-1.088-2.508l-8.748-3.559A1.917,1.917,0,0,0,2751.576,940.1Z" transform="translate(-2748.832 -939.284)" fill="#12204d"/>
    </g>
    <g id="Group_10" data-name="Group 10" transform="translate(4.066 38.546)">
      <path id="Path_24" data-name="Path 24" d="M2774.309,1041.334a2.415,2.415,0,0,1-.891-.17l-2.207-.857a2.432,2.432,0,1,1,1.787-4.524l2.208.857a2.431,2.431,0,0,1,1.369,3.157h0A2.439,2.439,0,0,1,2774.309,1041.334Zm-2.209-4.913a1.622,1.622,0,0,0-.593,3.129l2.208.858a1.626,1.626,0,0,0,2.107-.911h0a1.62,1.62,0,0,0-.91-2.1l-2.21-.857A1.631,1.631,0,0,0,2772.1,1036.421Z" transform="translate(-2769.669 -1035.609)" fill="#12204d"/>
    </g>
    <g id="Group_11" data-name="Group 11" transform="translate(4.068 32.981)">
      <path id="Path_25" data-name="Path 25" d="M2775.723,1013.685a2.627,2.627,0,0,1-.969-.186l-3.41-1.333a2.631,2.631,0,1,1,1.934-4.894l3.411,1.332a2.631,2.631,0,0,1,1.48,3.416h0a2.637,2.637,0,0,1-2.446,1.665Zm-3.411-5.786a1.82,1.82,0,0,0-.67,3.512l3.41,1.332a1.819,1.819,0,0,0,2.363-1.022h0a1.819,1.819,0,0,0-1.022-2.362l-3.412-1.332A1.807,1.807,0,0,0,2772.312,1007.9Z" transform="translate(-2769.678 -1007.087)" fill="#12204d"/>
    </g>
    <g id="Group_12" data-name="Group 12" transform="translate(4.067 27.041)">
      <path id="Path_26" data-name="Path 26" d="M2777.847,984.278a2.739,2.739,0,0,1-1.011-.194l-5.426-2.144a2.744,2.744,0,1,1,2.02-5.1l5.424,2.143a2.745,2.745,0,0,1-1.007,5.3Zm-5.423-6.822a1.932,1.932,0,0,0-.714,3.729l5.425,2.144a1.929,1.929,0,0,0,2.507-1.086h0a1.934,1.934,0,0,0-1.085-2.507l-5.425-2.143A1.92,1.92,0,0,0,2772.423,977.457Z" transform="translate(-2769.677 -976.645)" fill="#12204d"/>
    </g>
    <rect id="Rectangle_5" data-name="Rectangle 5" width="25.945" height="51.882" rx="6" transform="translate(7.225 0)" fill="#12204d"/>
    <path id="Path_27" data-name="Path 27" d="M2812.38,844.5h-3.545l-.357.882a1.549,1.549,0,0,1-1.436.968h-9.284a1.548,1.548,0,0,1-1.436-.968l-.357-.882h-3.556a2.125,2.125,0,0,0-2.123,2.123v45.125a2.125,2.125,0,0,0,2.123,2.122h19.971a2.125,2.125,0,0,0,2.124-2.122V846.621A2.125,2.125,0,0,0,2812.38,844.5Z" transform="translate(-2782.198 -843.242)" fill="#bfc6d9"/>
    <path id="Path_28" data-name="Path 28" d="M2874.544,1004.4a4.5,4.5,0,0,0-.656-2.339l-2.4-3.94a1.875,1.875,0,0,0-1.6-.9h-8.428c-1.112.918.635,4.568,1.978,4.568s3.929.133,3.929.133l.9,4.171.114.32c-2.538,2.1-5.017,6.234-5.017,9.714v2.25c0,3.642,1.164,9.708,6.854,9.583,3.078,0,4.327,1,4.327-2.641l0-1.6,0,.013Z" transform="translate(-2839.2 -966.162)" fill="#fdfdfd"/>
    <g id="Group_13" data-name="Group 13" transform="translate(21.501 30.649)">
      <path id="Path_29" data-name="Path 29" d="M2873.271,1024.437l-.165-.47a.4.4,0,0,1-.239.079h0a.405.405,0,0,1-.405-.4l-.012-4,.012.033v-16.954a4.1,4.1,0,0,0-.6-2.129l-2.4-3.94a1.479,1.479,0,0,0-1.256-.706h-8.252a2.155,2.155,0,0,0,.1,1.664c.443,1.233,1.251,2.092,1.7,2.092,1.337,0,3.844.129,3.95.134l.31.016.959,4.449.2.563-.219.181c-2.394,1.982-4.87,6.04-4.87,9.4v2.25a16.93,16.93,0,0,0,.179,2.466.405.405,0,1,1-.8.119,17.665,17.665,0,0,1-.188-2.585v-2.25c0-3.627,2.509-7.71,4.947-9.841l-.034-.107-.833-3.867c-.727-.035-2.555-.118-3.6-.118-1,0-1.993-1.323-2.463-2.629-.435-1.211-.353-2.179.227-2.657l.113-.093h8.574a2.294,2.294,0,0,1,1.949,1.1l2.4,3.94a4.906,4.906,0,0,1,.715,2.55v21.714Z" transform="translate(-2859.022 -995.137)" fill="#12204d"/>
    </g>
    <rect id="Rectangle_6" data-name="Rectangle 6" width="21.163" height="7.233" transform="translate(15.87 57.606)" fill="#6e7da5"/>
    <rect id="Rectangle_7" data-name="Rectangle 7" width="7.143" height="7.233" transform="translate(15.869 57.606)" fill="#2b427c"/>
    <path id="Path_30" data-name="Path 30" d="M2887.808,860.891l2.477-6.56a13.12,13.12,0,1,1,3.9,6.54Z" transform="translate(-2860.691 -838.112)" fill="#ff3755"/>
    <circle id="Ellipse_2" data-name="Ellipse 2" cx="9.416" cy="9.416" r="9.416" transform="translate(32.623 3.676)" fill="#ff7288"/>
    <g id="check" transform="translate(36.95 8.854)">
      <path id="Path_32" data-name="Path 32" d="M13.752,17.285l-2.826-2.824L9.514,15.873l4.238,4.238,7.061-7.062L19.4,11.635Z" transform="translate(-9.514 -11.635)" fill="#fff"/>
    </g>
  </g>
</svg>
