<svg id="img-illustration-3" xmlns="http://www.w3.org/2000/svg" width="74.734" height="64.942" viewBox="0 0 74.734 64.942">
  <path id="Path_44" data-name="Path 44" d="M288.6,209.551a9.279,9.279,0,1,0-9.281-9.28,9.3,9.3,0,0,0,9.281,9.28Zm-21.316-13.044,5.379-1.009a15.872,15.872,0,0,1,1.278-3.093l-3.093-4.572a1.225,1.225,0,0,1,.134-1.412l3.833-3.766a1.115,1.115,0,0,1,1.345-.134l4.572,3.092a18.252,18.252,0,0,1,3.16-1.278l1.009-5.379a1.22,1.22,0,0,1,1.076-.874h5.447a1.15,1.15,0,0,1,1.075.874l1.01,5.379a24.925,24.925,0,0,1,3.091,1.278l4.439-3.025a1.217,1.217,0,0,1,1.412.134l3.834,3.833a1.115,1.115,0,0,1,.133,1.344l-3.093,4.573a13.516,13.516,0,0,1,1.209,3.025l5.381.942a1.3,1.3,0,0,1,.875,1.076v5.447a1.233,1.233,0,0,1-.875,1.143l-5.381.941a17.932,17.932,0,0,1-1.209,3.16l3.026,4.439a1.218,1.218,0,0,1-.134,1.412l-3.833,3.766a1.132,1.132,0,0,1-1.412.2L296.537,215a20.309,20.309,0,0,1-3.025,1.21l-1.01,5.379a1.151,1.151,0,0,1-1.075.875H285.98a1.221,1.221,0,0,1-1.076-.875l-1.009-5.312A21.332,21.332,0,0,1,280.8,215l-4.573,3.092a1.115,1.115,0,0,1-1.345-.134l-3.832-3.832a1.31,1.31,0,0,1-.134-1.479l3.025-4.439a18.411,18.411,0,0,1-1.278-3.16l-5.379-.941a1.264,1.264,0,0,1-.808-1.143v-5.379a1.021,1.021,0,0,1,.808-1.076Zm17.483,3.765a3.866,3.866,0,1,1,3.833,3.834,3.831,3.831,0,0,1-3.833-3.834Z" transform="translate(-266.472 -178.082)" fill="#12204d" fill-rule="evenodd"/>
  <path id="Path_45" data-name="Path 45" d="M283.061,201.671a6.955,6.955,0,1,0-6.957-6.956,6.97,6.97,0,0,0,6.957,6.956Zm-15.978-9.778,4.032-.757a11.9,11.9,0,0,1,.958-2.318l-2.318-3.427a.918.918,0,0,1,.1-1.058l2.873-2.823a.836.836,0,0,1,1.008-.1l3.427,2.318a13.681,13.681,0,0,1,2.368-.958l.757-4.032a.914.914,0,0,1,.807-.655h4.083a.862.862,0,0,1,.806.655l.757,4.032a18.684,18.684,0,0,1,2.317.958l3.327-2.268a.912.912,0,0,1,1.058.1l2.874,2.873a.836.836,0,0,1,.1,1.008l-2.318,3.428a10.132,10.132,0,0,1,.907,2.268l4.033.706a.972.972,0,0,1,.656.807v4.083a.924.924,0,0,1-.656.857l-4.033.705a13.441,13.441,0,0,1-.907,2.368l2.268,3.327a.913.913,0,0,1-.1,1.058l-2.873,2.823a.848.848,0,0,1-1.058.151l-3.327-2.268a15.227,15.227,0,0,1-2.267.907l-.757,4.032a.862.862,0,0,1-.806.656H281.1a.915.915,0,0,1-.807-.656l-.757-3.982a15.992,15.992,0,0,1-2.318-.958l-3.428,2.318a.836.836,0,0,1-1.008-.1l-2.873-2.873a.982.982,0,0,1-.1-1.109l2.268-3.327a13.8,13.8,0,0,1-.958-2.368l-4.032-.705a.947.947,0,0,1-.605-.857V192.7a.765.765,0,0,1,.605-.807Zm13.105,2.822a2.9,2.9,0,1,1,2.873,2.874,2.872,2.872,0,0,1-2.873-2.874Z" transform="translate(-224.961 -146.408)" fill="#bfc6d9" fill-rule="evenodd"/>
</svg>
