<svg id="img-illustration-1" xmlns="http://www.w3.org/2000/svg" width="62.072" height="57.822" viewBox="0 0 62.072 57.822">
  <g id="Group_166" data-name="Group 166" transform="translate(0 0)">
    <g id="Group_41" data-name="Group 41" transform="translate(12.895 13.446)">
      <g id="Group_40" data-name="Group 40">
        <g id="Group_39" data-name="Group 39">
          <path id="Path_49" data-name="Path 49" d="M1054.339,1828.036a22.17,22.17,0,0,1-19.511,22.028,22.486,22.486,0,0,1-5.354,0l-.117-.014q-.6-.076-1.191-.183a22.189,22.189,0,1,1,26.173-21.831Z" transform="translate(-1009.964 -1805.848)" fill="#bfc6d9"/>
        </g>
      </g>
    </g>
    <g id="Group_51" data-name="Group 51" transform="translate(32.49 42.05)">
      <g id="Group_46" data-name="Group 46">
        <g id="Group_45" data-name="Group 45">
          <g id="Group_44" data-name="Group 44">
            <g id="Group_43" data-name="Group 43">
              <g id="Group_42" data-name="Group 42">
                <path id="Path_50" data-name="Path 50" d="M1389.962,2370.487c.234,3.806,2.573,5.825,5.471,5.664q.6-.076,1.191-.183a8.334,8.334,0,0,0,2.381-1.035c5.243-3.266,5.493-10.626,10.243-14.379a25.959,25.959,0,0,1-7.137,2.055c-4.781.927-9.818,1.888-11.613,6.038A8.036,8.036,0,0,0,1389.962,2370.487Z" transform="translate(-1389.962 -2360.554)" fill="#14244d"/>
              </g>
            </g>
          </g>
        </g>
      </g>
      <g id="Group_50" data-name="Group 50" transform="translate(0.238 2.055)">
        <g id="Group_49" data-name="Group 49">
          <g id="Group_48" data-name="Group 48">
            <g id="Group_47" data-name="Group 47">
              <path id="Path_51" data-name="Path 51" d="M1395.019,2410.614c1.532,2.871,6.04.375,7.549-1.1,2.424-2.366,3.271-5.9,3.912-9.109-4.781.927-9.818,1.888-11.613,6.038A5.922,5.922,0,0,0,1395.019,2410.614Z" transform="translate(-1394.568 -2400.407)" fill="#141835"/>
            </g>
          </g>
        </g>
      </g>
    </g>
    <g id="Group_54" data-name="Group 54" transform="translate(23.441 35.634)" opacity="0.2" style="mix-blend-mode: multiply;isolation: isolate">
      <g id="Group_53" data-name="Group 53">
        <g id="Group_52" data-name="Group 52">
          <path id="Path_52" data-name="Path 52" d="M1248.315,2236.122a22.194,22.194,0,0,1-13.434,20.394l-20.394-20.394Z" transform="translate(-1214.486 -2236.122)" fill="#578cca"/>
        </g>
      </g>
    </g>
    <g id="Group_143" data-name="Group 143" transform="translate(0 5.183)">
      <g id="Group_84" data-name="Group 84" transform="translate(8.092)">
        <g id="Group_70" data-name="Group 70">
          <g id="Group_69" data-name="Group 69">
            <g id="Group_68" data-name="Group 68">
              <path id="Path_57" data-name="Path 57" d="M970.816,1657.478v18.58h-53.98v-18.58a11.589,11.589,0,0,1,1.2-5.147,11.806,11.806,0,0,1,.979-1.636,11.933,11.933,0,0,1,.934-1.15,12.252,12.252,0,0,1,8.93-3.937h29.9a12.157,12.157,0,0,1,11.186,7.5l.005.013a11.6,11.6,0,0,1,.845,4.357Z" transform="translate(-916.836 -1645.607)" fill="#2b427c"/>
            </g>
          </g>
        </g>
        <g id="Group_73" data-name="Group 73" transform="translate(0 0)">
          <g id="Group_72" data-name="Group 72">
            <g id="Group_71" data-name="Group 71">
              <path id="Path_58" data-name="Path 58" d="M941.149,1657.479v18.58H916.836v-18.58a11.625,11.625,0,0,1,2.179-6.783,12.344,12.344,0,0,1,18.573-1.611A11.7,11.7,0,0,1,941.149,1657.479Z" transform="translate(-916.836 -1645.608)" fill="#1f316b"/>
            </g>
          </g>
        </g>
        <g id="Group_76" data-name="Group 76" transform="translate(24.313 16.596)">
          <g id="Group_75" data-name="Group 75">
            <g id="Group_74" data-name="Group 74">
              <rect id="Rectangle_11" data-name="Rectangle 11" width="29.667" height="13.855" fill="#1f316b"/>
            </g>
          </g>
        </g>
        <g id="Group_83" data-name="Group 83" transform="translate(24.313 30.451)">
          <g id="Group_79" data-name="Group 79">
            <g id="Group_78" data-name="Group 78">
              <g id="Group_77" data-name="Group 77">
                <path id="Path_59" data-name="Path 59" d="M1393.681,2236.122v22.028a22.52,22.52,0,0,1-5.354,0v-22.028Z" transform="translate(-1388.327 -2236.122)" fill="#14244d"/>
              </g>
            </g>
          </g>
          <g id="Group_82" data-name="Group 82" transform="translate(0 0)">
            <g id="Group_81" data-name="Group 81">
              <g id="Group_80" data-name="Group 80">
                <rect id="Rectangle_12" data-name="Rectangle 12" width="5.354" height="3.774" fill="#141835"/>
              </g>
            </g>
          </g>
        </g>
      </g>
      <g id="Group_93" data-name="Group 93" transform="translate(50.945 25.275)">
        <g id="Group_88" data-name="Group 88">
          <g id="Group_87" data-name="Group 87">
            <g id="Group_86" data-name="Group 86">
              <g id="Group_85" data-name="Group 85">
                <path id="Path_60" data-name="Path 60" d="M1751.465,2139.167a.255.255,0,0,1,.255-.255v-.229a.255.255,0,0,1,0-.51v-.229a.255.255,0,0,1,0-.51v-.229a.255.255,0,0,1,0-.51v-.229a.255.255,0,0,1,0-.511v-.2h-.2v0a.255.255,0,1,1-.511,0s0,0,0,0h-.229s0,0,0,0a.255.255,0,1,1-.511,0s0,0,0,0h-.229a.034.034,0,0,1,0,0,.255.255,0,1,1-.511,0,.031.031,0,0,1,0,0h-.229s0,0,0,0a.255.255,0,1,1-.511,0v0h-.229s0,0,0,0a.255.255,0,1,1-.511,0s0,0,0,0h-.2v.2a.255.255,0,1,1,0,.511v.229a.255.255,0,1,1,0,.51v.229a.255.255,0,1,1,0,.51v.229a.255.255,0,1,1,0,.51v.229a.255.255,0,1,1,0,.51v.2h.2a.255.255,0,1,1,.511,0h.229a.255.255,0,1,1,.511,0h.228a.255.255,0,1,1,.511,0h.229a.255.255,0,1,1,.511,0h.228a.255.255,0,1,1,.511,0h.2v-.2A.255.255,0,0,1,1751.465,2139.167Z" transform="translate(-1747.858 -2135.757)" fill="#fff"/>
              </g>
            </g>
          </g>
        </g>
        <g id="Group_92" data-name="Group 92" transform="translate(5.827)">
          <g id="Group_91" data-name="Group 91">
            <g id="Group_90" data-name="Group 90">
              <g id="Group_89" data-name="Group 89">
                <path id="Path_61" data-name="Path 61" d="M1864.472,2139.167a.255.255,0,0,1,.255-.255v-.229a.255.255,0,1,1,0-.51v-.229a.255.255,0,1,1,0-.51v-.229a.255.255,0,1,1,0-.51v-.229a.255.255,0,0,1,0-.511v-.2h-.2s0,0,0,0a.255.255,0,1,1-.511,0v0h-.229a.034.034,0,0,1,0,0,.255.255,0,1,1-.51,0s0,0,0,0h-.229s0,0,0,0a.255.255,0,0,1-.511,0s0,0,0,0h-.229s0,0,0,0a.255.255,0,1,1-.511,0v0h-.229a.017.017,0,0,1,0,0,.255.255,0,1,1-.511,0s0,0,0,0h-.2v.2a.255.255,0,0,1,0,.511v.229a.255.255,0,1,1,0,.51v.229a.255.255,0,1,1,0,.51v.229a.255.255,0,1,1,0,.51v.229a.255.255,0,1,1,0,.51v.2h.2a.255.255,0,1,1,.511,0h.228a.255.255,0,1,1,.511,0h.228a.255.255,0,0,1,.511,0h.228a.255.255,0,1,1,.51,0h.229a.255.255,0,1,1,.511,0h.2v-.2A.255.255,0,0,1,1864.472,2139.167Z" transform="translate(-1860.865 -2135.757)" fill="#fff"/>
              </g>
            </g>
          </g>
        </g>
      </g>
      <g id="Group_109" data-name="Group 109" transform="translate(16.499 13.724)">
        <g id="Group_96" data-name="Group 96">
          <g id="Group_95" data-name="Group 95">
            <g id="Group_94" data-name="Group 94">
              <rect id="Rectangle_13" data-name="Rectangle 13" width="15.906" height="11.745" fill="#fff"/>
            </g>
          </g>
        </g>
        <g id="Group_99" data-name="Group 99" transform="translate(3.429 1.951)">
          <g id="Group_98" data-name="Group 98">
            <g id="Group_97" data-name="Group 97">
              <path id="Path_62" data-name="Path 62" d="M1150.593,1950.108h-3.855c-.209,0-.379-.116-.379-.259h0c0-.143.17-.258.379-.258h3.855c.209,0,.379.116.379.258h0C1150.972,1949.992,1150.8,1950.108,1150.593,1950.108Z" transform="translate(-1146.358 -1949.591)" fill="#121e3d"/>
            </g>
          </g>
        </g>
        <g id="Group_102" data-name="Group 102" transform="translate(3.429 6.101)">
          <g id="Group_101" data-name="Group 101">
            <g id="Group_100" data-name="Group 100">
              <path id="Path_63" data-name="Path 63" d="M1156.733,2030.582h-10.117a.258.258,0,0,1-.258-.258h0a.258.258,0,0,1,.258-.259h10.117a.258.258,0,0,1,.258.259h0A.258.258,0,0,1,1156.733,2030.582Z" transform="translate(-1146.358 -2030.065)" fill="#121e3d"/>
            </g>
          </g>
        </g>
        <g id="Group_105" data-name="Group 105" transform="translate(3.429 4.87)">
          <g id="Group_104" data-name="Group 104">
            <g id="Group_103" data-name="Group 103">
              <path id="Path_64" data-name="Path 64" d="M1156.733,2006.706h-10.117a.259.259,0,0,1-.258-.259h0a.258.258,0,0,1,.258-.258h10.117a.258.258,0,0,1,.258.258h0A.258.258,0,0,1,1156.733,2006.706Z" transform="translate(-1146.358 -2006.189)" fill="#121e3d"/>
            </g>
          </g>
        </g>
        <g id="Group_108" data-name="Group 108" transform="translate(3.429 7.332)">
          <g id="Group_107" data-name="Group 107">
            <g id="Group_106" data-name="Group 106">
              <path id="Path_65" data-name="Path 65" d="M1156.733,2054.457h-10.117a.258.258,0,0,1-.258-.258h0a.258.258,0,0,1,.258-.259h10.117a.258.258,0,0,1,.258.259h0A.258.258,0,0,1,1156.733,2054.457Z" transform="translate(-1146.358 -2053.94)" fill="#121e3d"/>
            </g>
          </g>
        </g>
      </g>
      <g id="Group_112" data-name="Group 112" transform="translate(10.271 0)" opacity="0.2" style="mix-blend-mode: multiply;isolation: isolate">
        <g id="Group_111" data-name="Group 111">
          <g id="Group_110" data-name="Group 110">
            <path id="Path_66" data-name="Path 66" d="M977.665,1649.085a12.343,12.343,0,0,0-18.573,1.611l22.134,19.055v-12.271A11.7,11.7,0,0,0,977.665,1649.085Z" transform="translate(-959.092 -1645.608)" fill="#121e3d"/>
          </g>
        </g>
      </g>
      <g id="Group_142" data-name="Group 142" transform="translate(0 0)">
        <g id="Group_141" data-name="Group 141">
          <path id="Path_77" data-name="Path 77" d="M792.5,1657.69a11.784,11.784,0,0,0-.974-4.711,12.032,12.032,0,0,0-2.651-3.841,12.326,12.326,0,0,0-3.925-2.584,12.625,12.625,0,0,0-10.6.465,12.364,12.364,0,0,0-4.332,3.758,11.829,11.829,0,0,0-2.22,6.913v15.743h-7.9v2.626h32.6Zm-22.781,0a9.921,9.921,0,0,1,1.863-5.8,10.437,10.437,0,0,1,3.657-3.171,10.669,10.669,0,0,1,4.911-1.194,10.5,10.5,0,0,1,7.384,2.985,9.968,9.968,0,0,1,3.047,7.179v15.743H769.723Z" transform="translate(-759.905 -1645.608)" fill="#12204d"/>
        </g>
      </g>
      <text id="mail" transform="translate(46.26 18.287)" fill="#fff" font-size="8" font-family="Poppins-SemiBold, Poppins" font-weight="600"><tspan x="-9" y="0">mail</tspan></text>
    </g>
    <circle id="Ellipse_6" data-name="Ellipse 6" cx="7.554" cy="7.554" r="7.554" transform="translate(46.963)" fill="#ff3755"/>
    <g id="Group_164" data-name="Group 164" transform="translate(50.8 2.868)">
      <g id="Group_155" data-name="Group 155" transform="translate(0 0.92)">
        <g id="Group_154" data-name="Group 154">
          <g id="Group_153" data-name="Group 153">
            <g id="Group_152" data-name="Group 152">
              <path id="Path_79" data-name="Path 79" d="M1779.772,1600.577v-1.766a3.005,3.005,0,0,0-3.005-3.005h0a3.005,3.005,0,0,0-3.005,3.005v1.766a3.453,3.453,0,0,1-.761,2.148h7.532A3.455,3.455,0,0,1,1779.772,1600.577Z" transform="translate(-1773 -1595.806)" fill="#fff"/>
            </g>
          </g>
        </g>
      </g>
      <g id="Group_159" data-name="Group 159" transform="translate(2.632 8.238)">
        <g id="Group_158" data-name="Group 158">
          <g id="Group_157" data-name="Group 157">
            <g id="Group_156" data-name="Group 156">
              <path id="Path_80" data-name="Path 80" d="M1809.364,1694.882h0a1.134,1.134,0,0,1-1.134-1.134h2.269A1.134,1.134,0,0,1,1809.364,1694.882Z" transform="translate(-1808.23 -1693.748)" fill="#fff"/>
            </g>
          </g>
        </g>
      </g>
      <g id="Group_163" data-name="Group 163" transform="translate(2.846 0)">
        <g id="Group_162" data-name="Group 162">
          <g id="Group_161" data-name="Group 161">
            <g id="Group_160" data-name="Group 160">
              <path id="Path_81" data-name="Path 81" d="M1812.011,1583.485a.921.921,0,1,0,.921.92A.921.921,0,0,0,1812.011,1583.485Zm0,1.473a.553.553,0,1,1,.553-.553A.553.553,0,0,1,1812.011,1584.958Z" transform="translate(-1811.091 -1583.485)" fill="#fff"/>
            </g>
          </g>
        </g>
      </g>
    </g>
  </g>
</svg>
